<?xml version="1.0" encoding="utf-8"?>
<!-- Generator: Adobe Illustrator 27.3.1, SVG Export Plug-In . SVG Version: 6.00 Build 0)  -->
<svg version="1.1" id="Слой_1" xmlns="http://www.w3.org/2000/svg" xmlns:xlink="http://www.w3.org/1999/xlink" x="0px" y="0px"
	 viewBox="0 0 643 644" style="enable-background:new 0 0 643 644;" xml:space="preserve">
<style type="text/css">
	.st0{fill:#FFFFFF;}
	.st1{fill:#FFE3E4;}
	.st2{fill:#FFC1C3;}
	.st3{fill:#911B20;}
</style>
<polygon class="st0" points="271.5,236 406.5,236 406.5,629 15.5,629 15.5,101 271.5,101 "/>
<path class="st1" d="M279,93.5l135,135V247v50.5V348v51v51v101h221V143H500V8H229v85.5H279z"/>
<path class="st2" d="M500,8v135h135L500,8z"/>
<path class="st1" d="M279,93.5v135h135L279,93.5z"/>
<g>
	<path class="st3" d="M503.1,0.5H221.5V86H0.5v558h421v-85.5h221V139.9L503.1,0.5z M507.5,26.1l109.4,109.4H507.5V26.1z M406.5,629
		h-391V101h256v135h135V629z M286.5,221V111.6L395.9,221H286.5z M627.5,543.5h-206v-86H549c4.1,0,7.5-3.4,7.5-7.5
		c0-4.1-3.4-7.5-7.5-7.5H421.5v-36H500c4.1,0,7.5-3.4,7.5-7.5c0-4.1-3.4-7.5-7.5-7.5h-78.5v-36H549c4.1,0,7.5-3.4,7.5-7.5
		c0-4.1-3.4-7.5-7.5-7.5H421.5V305H500c4.1,0,7.5-3.4,7.5-7.5c0-4.1-3.4-7.5-7.5-7.5h-78.5v-35.5H549c4.1,0,7.5-3.4,7.5-7.5
		c0-4.1-3.4-7.5-7.5-7.5H421.5v-14.1L282.1,86h-45.6V15.5h256v135h135V543.5z"/>
	<path class="st3" d="M94,306.5c-4.1,0-7.5,3.4-7.5,7.5c0,4.1,3.4,7.5,7.5,7.5h135h99c4.1,0,7.5-3.4,7.5-7.5c0-4.1-3.4-7.5-7.5-7.5
		h-99H94z"/>
	<path class="st3" d="M94,474.5h135h50c4.1,0,7.5-3.4,7.5-7.5c0-4.1-3.4-7.5-7.5-7.5h-50H94c-4.1,0-7.5,3.4-7.5,7.5
		C86.5,471.1,89.9,474.5,94,474.5z"/>
	<path class="st3" d="M328,408.5h-99H94c-4.1,0-7.5,3.4-7.5,7.5c0,4.1,3.4,7.5,7.5,7.5h135h99c4.1,0,7.5-3.4,7.5-7.5
		C335.5,411.9,332.1,408.5,328,408.5z"/>
	<path class="st3" d="M94,372.5h135h50c4.1,0,7.5-3.4,7.5-7.5c0-4.1-3.4-7.5-7.5-7.5h-50H94c-4.1,0-7.5,3.4-7.5,7.5
		C86.5,369.1,89.9,372.5,94,372.5z"/>
	<path class="st3" d="M328,510.5h-99H94c-4.1,0-7.5,3.4-7.5,7.5s3.4,7.5,7.5,7.5h135h99c4.1,0,7.5-3.4,7.5-7.5
		S332.1,510.5,328,510.5z"/>
</g>
</svg>
