<?xml version="1.0" encoding="UTF-8"?>
<svg id="_Слой_2" data-name="Слой 2" xmlns="http://www.w3.org/2000/svg" viewBox="0 0 632.37 100">
  <defs>
    <style>
      .cls-1, .cls-2 {
        fill: #fff;
      }

      .cls-2, .cls-3 {
        fill-rule: evenodd;
      }

      .cls-3, .cls-4 {
        fill: #921e1f;
      }
    </style>
  </defs>
  <g id="_Слой_1-2" data-name="Слой 1">
    <g>
      <g>
        <path class="cls-3" d="m92.75,55.2l-4.47,1.23-.27,2.73,4.15,2.07-.59,2.97-4.62.33-.8,2.62,3.66,2.85-1.16,2.8-4.6-.58-1.3,2.42,3.04,3.5-1.68,2.52-4.4-1.47-1.74,2.12,2.29,4.03-2.14,2.14-4.03-2.3-2.12,1.74,1.46,4.4-2.52,1.69-3.5-3.04-2.42,1.29.58,4.6-2.8,1.16-2.84-3.66-2.63.8-.33,4.63-2.97.59-2.07-4.15-2.73.27-1.23,4.47h-3.03l-1.23-4.47-2.73-.27-2.08,4.15-2.97-.59-.33-4.63-2.63-.8-2.84,3.66-2.8-1.16.58-4.6-2.42-1.29-3.51,3.04-2.52-1.68,1.47-4.4-2.12-1.74-4.03,2.3-2.15-2.14,2.3-4.03-1.74-2.12-4.4,1.47-1.68-2.52,3.04-3.5-1.29-2.42-4.6.58-1.16-2.8,3.66-2.85-.8-2.62-4.62-.33-.59-2.97,4.14-2.07-.27-2.73L.12,55.2h8.11c.87,20.33,17.62,36.55,38.15,36.55s37.29-16.21,38.16-36.55h8.2Z"/>
        <path class="cls-3" d="m83.29,55.2c-.87,19.63-17.06,35.28-36.91,35.28S10.35,74.84,9.48,55.2h13.26v-.95H0C-.11,33.82,16.9,2.11,56.69.18c8.22-.4,25.35-.08,35.66.43l-.85,9.33c-5.94.35-27.12,1.01-15.79,9.41,15.67,11.62,17.09,29.7,17.06,34.89h-22.73v.95h13.26Z"/>
        <polygon class="cls-1" points="47.27 64.69 47.27 66.47 48.13 66.19 48.17 66.18 49.13 65.94 49.16 65.94 49.21 65.93 50.43 65.8 50.45 65.8 50.5 65.8 51.74 65.82 51.79 65.82 51.8 65.82 53.51 66.02 53.55 66.02 55.37 66.34 55.38 66.34 57.33 66.7 57.33 66.7 58.44 66.89 59.69 67.06 61.37 67.3 61.37 67.3 62.43 67.39 63.83 67.42 65.15 67.25 65.15 67.25 66.56 67.01 67.18 66.83 67.19 65.53 68.35 65.31 68.35 67.23 68.35 67.65 67.93 67.77 66.86 68.08 66.83 68.09 66.79 68.1 65.35 68.34 65.33 68.34 63.95 68.53 63.91 68.53 63.86 68.53 62.39 68.5 62.34 68.5 61.23 68.4 61.2 68.4 59.52 68.16 58.26 67.99 58.24 67.98 57.13 67.8 57.12 67.8 55.16 67.43 55.16 67.43 53.38 67.12 53.38 67.12 51.67 66.93 50.53 66.91 49.38 67.03 48.48 67.25 47.27 67.65 47.27 67.93 46.68 67.93 46.39 67.93 45.51 67.93 45.51 67.65 44.31 67.25 43.4 67.03 42.26 66.91 41.11 66.93 39.41 67.12 39.41 67.12 37.63 67.43 37.63 67.43 35.66 67.8 35.65 67.8 34.54 67.98 34.53 67.99 33.26 68.16 31.58 68.4 31.55 68.4 30.44 68.5 30.4 68.5 28.92 68.53 28.88 68.53 28.84 68.53 27.46 68.34 27.43 68.34 25.99 68.1 25.96 68.09 25.93 68.08 24.85 67.77 24.43 67.65 24.43 67.23 24.43 65.31 25.6 65.53 25.6 66.83 26.22 67.01 27.64 67.25 27.64 67.25 28.95 67.42 30.35 67.39 31.41 67.3 31.41 67.3 33.09 67.06 34.34 66.89 35.45 66.7 35.45 66.7 37.41 66.34 37.41 66.34 39.23 66.02 39.27 66.02 40.98 65.82 40.99 65.82 41.04 65.82 42.28 65.8 42.33 65.8 42.36 65.8 43.57 65.93 43.62 65.94 43.65 65.94 44.61 66.18 44.65 66.19 45.51 66.47 45.51 64.69 46.38 65 47.27 64.69"/>
        <path class="cls-2" d="m69.37,34.17l-1.59.22-1.86.18h-1.48l-1.76-.04-1.55-.16-1.38-.2-1.39-.22-1.99-.29-1.67-.25-1.34-.04-1.3.04-1.41.14-1.26.33-1.24.51-.71.58-.52.44-.22.41v28.65l1.76-.56,1.03-.24,1.31-.14,1.34.02,1.84.2,1.96.34,2.12.38,1.2.19,1.36.18,1.8.25,1.2.1,1.58.04,1.49-.19,1.56-.26,1.15-.32-.04-3.28v-27.02h0Zm-45.96,0l1.59.22,1.86.18h1.48l1.77-.04,1.54-.16,1.38-.2,1.39-.22,1.99-.29,1.68-.25,1.34-.04,1.3.04,1.41.14,1.26.33,1.24.51.71.58.52.44.22.41v28.65l-1.76-.56-1.03-.24-1.31-.14-1.34.02-1.85.2-1.96.34-2.12.38-1.2.19-1.36.18-1.8.25-1.2.1-1.59.04-1.48-.19-1.56-.26-1.16-.32.04-3.28v-27.02Z"/>
        <path class="cls-1" d="m23.66,72.17h.43c.08,0,.29.02.63.06.33.04.57.05.72.05.14,0,.37-.02.7-.05.35-.04.56-.06.64-.06h.44v.49h-.27c-.21,0-.36.08-.46.23-.1.16-.16.35-.18.58-.02.23-.03.54-.03.94v4.45c0,1.07.23,1.6.69,1.6h.26v.49h-.47c-.12,0-.3-.03-.53-.09-.27-.04-.53-.06-.79-.06s-.53.02-.79.06c-.23.06-.41.09-.53.09h-.47v-.49h.26c.48,0,.71-.54.71-1.6v-4.45c0-.4,0-.72-.03-.94-.02-.23-.08-.42-.18-.58-.1-.15-.25-.23-.46-.23h-.27v-.49h0Zm5.26.49h.28c.2,0,.3.14.3.43-.06.25-.18.48-.37.69-.19.21-.47.47-.83.8-.18.16-.33.3-.45.43-.12.12-.32.33-.58.61-.26.29-.51.55-.75.79.67.77,1.4,1.69,2.18,2.77.36.5.63.85.82,1.08.19.22.4.41.65.55.25.15.54.22.89.22.28,0,.57-.05.84-.14.13-.05.26-.1.4-.13v-.5c-.31.12-.56.19-.73.19s-.33-.08-.45-.23c-.12-.16-.3-.41-.54-.77-.53-.82-.94-1.42-1.22-1.82-.28-.39-.57-.73-.87-.99-.29-.27-.63-.47-1-.6.09-.08.25-.23.49-.47.71-.7,1.28-1.24,1.71-1.62.43-.39.78-.67,1.05-.86.27-.19.48-.31.64-.36.16-.05.32-.08.48-.08h.19v-.49h-.29c-.21,0-.35,0-.44.02-.09,0-.18.02-.27.04-.09.02-.15.04-.2.04-.05.01-.15.02-.3.02-.11,0-.26-.02-.44-.04-.18-.02-.29-.04-.35-.04-.05,0-.14-.01-.27-.02-.12-.01-.21-.02-.27-.02h-.27v.49h0Zm4.06-.49h.43c.08,0,.29.02.63.06.33.04.57.05.71.05s.37-.02.7-.05c.35-.04.56-.06.64-.06h.44v.49h-.27c-.2,0-.34.07-.44.19-.09.13-.16.29-.18.5-.03.2-.04.46-.05.79,0,.13,0,.3,0,.52,0,.22,0,.38,0,.46v.92c.58.07,1.39.11,2.42.11.91,0,1.67-.03,2.29-.1v-.96c0-.09,0-.23,0-.44,0-.2,0-.36,0-.48,0-.46-.05-.83-.14-1.11-.09-.27-.27-.41-.55-.41h-.27v-.49h.43c.08,0,.28.02.63.06.33.04.57.05.71.05.14,0,.37-.02.7-.05.35-.04.56-.06.63-.06h.44v.49h-.27c-.28,0-.47.13-.54.38-.08.25-.12.64-.12,1.16v.44c-.01.12-.01.28-.01.48v3.74c0,1.07.23,1.6.69,1.6h.25v.49h-.46c-.13,0-.3-.03-.53-.09-.26-.04-.52-.06-.79-.06s-.52.02-.79.06c-.23.06-.41.09-.53.09h-.46v-.49h.26c.48,0,.71-.54.71-1.6v-2.2c-.41.04-1.15.07-2.22.08h-1.04c-.58,0-1.06-.04-1.45-.08v2.2c0,1.07.23,1.6.69,1.6h.26v.49h-.46c-.13,0-.3-.03-.53-.09-.26-.04-.53-.06-.79-.06s-.53.02-.79.06c-.23.06-.41.09-.53.09h-.47v-.49h.26c.47,0,.71-.54.71-1.6v-3.76c0-.09,0-.24,0-.44,0-.2,0-.36,0-.48,0-.47-.05-.84-.14-1.11-.09-.27-.27-.41-.55-.41h-.27v-.49h0Zm10.82,0h.41c.06,0,.28.02.65.06.33.04.56.05.7.05s.37-.02.7-.05c.37-.04.58-.06.65-.06h.42v.49h-.27c-.28,0-.47.13-.55.38-.08.25-.13.61-.13,1.07v3.45c0,.38-.05.92-.15,1.62h.11c.27-.42.87-1.13,1.79-2.11.4-.44.85-.94,1.34-1.51.49-.57.97-1.16,1.45-1.75.47-.59.9-1.16,1.29-1.7.2-.04.42-.06.66-.07-.06.65-.08,1.23-.08,1.74v4.75c0,.42.01.77.04,1.03.02.27.09.48.19.65.1.17.25.26.45.26h.27v.49h-.44c-.12,0-.3-.03-.53-.09-.26-.04-.53-.06-.81-.06-.26,0-.51.02-.77.06-.23.06-.41.09-.53.09h-.48v-.49h.27c.21,0,.37-.1.47-.29.1-.19.16-.42.19-.69.02-.27.03-.59.03-.99v-2.99c0-.3.05-.64.14-1.01h-.08c-.14.28-.56.81-1.24,1.59-.69.78-1.42,1.57-2.18,2.38-.76.8-1.27,1.35-1.56,1.63-.36.38-.6.66-.74.85l-.88.22c.08-1.28.12-1.96.12-2.03v-5.15c0-.42-.04-.75-.13-.98-.09-.24-.26-.36-.53-.36h-.27v-.49h0Zm13.94.5h-1.04c-.45,0-.83.11-1.13.34-.3.22-.55.65-.72,1.28h-.49c.03-.18.05-.32.06-.43.02-.11.04-.24.06-.37.1-.6.16-1.11.19-1.51.07,0,.15.01.25.02.09,0,.18.02.27.02.09,0,.22.02.38.04.54.05,1.13.08,1.8.09.29,0,.55,0,.78,0,.22,0,.37,0,.42,0,.87,0,1.93-.04,3.2-.13.21,0,.52-.02.96-.05-.04.51-.12,1.05-.23,1.6,0,.03-.05.27-.13.71h-.5c.04-.25.06-.45.06-.58,0-.31-.1-.56-.3-.75-.2-.19-.6-.29-1.2-.29h-1.03v5.54c0,.71.04,1.27.12,1.66.08.39.28.59.6.59h.27v.49h-.48c-.13,0-.32-.03-.55-.09-.26-.04-.53-.06-.8-.06s-.54.02-.8.06c-.23.06-.42.09-.55.09h-.52v-.49h.27c.33,0,.54-.22.63-.66.09-.44.13-.96.13-1.57v-5.55h0Zm5.19-.5h.22c.21,0,.44.02.71.06.27.04.54.06.82.06s.62-.02,1.01-.07c.29-.03.51-.05.66-.05h.31v.49h-.28c-.15,0-.27.06-.36.16-.09.11-.13.24-.13.4,0,.13.06.39.18.78.12.39.39,1.14.82,2.25.42,1.1.69,1.86.81,2.25.12.4.2.72.23.95h.14c.07-.38.16-.73.26-1.06l1.23-3.87c.11-.36.17-.69.17-1,0-.27-.05-.48-.14-.64-.09-.15-.2-.23-.35-.23h-.43v-.49h.35c.1,0,.24.02.43.05.29.04.53.07.74.07.18,0,.47-.03.87-.08.14-.03.29-.04.44-.04h.24v.49h-.52c-.13,0-.27.09-.42.26-.14.17-.3.46-.48.88-.18.41-.39.97-.62,1.68-.24.7-.52,1.61-.84,2.72-.29.99-.53,1.77-.73,2.34-.2.57-.41,1.05-.63,1.44-.22.39-.46.67-.72.86-.26.18-.57.28-.92.28s-.62-.11-.79-.34c-.18-.22-.26-.49-.26-.83,0-.14.04-.3.11-.46.08-.17.14-.4.19-.69h.45c-.03.1-.05.22-.05.36,0,.29.09.54.27.74.18.21.39.32.64.32.18,0,.33-.07.46-.2.13-.14.19-.36.19-.67,0-.16-.1-.5-.29-1.01-.2-.51-.43-1.08-.72-1.71-.28-.63-.45-1.01-.51-1.14-.09-.21-.22-.52-.39-.93-.18-.41-.33-.79-.48-1.14-.3-.71-.53-1.27-.73-1.66-.19-.4-.36-.67-.51-.83-.14-.16-.3-.24-.48-.24h-.19v-.49Z"/>
        <path class="cls-1" d="m35.2,22.94v-.57c.25-.08.52-.19.8-.31.28-.13.56-.27.84-.42.28-.15.54-.31.78-.47.24-.16.44-.31.6-.45h.12c-.06.42-.1.88-.12,1.37-.04.64-.05,1.25-.05,1.83,0,.51,0,.94,0,1.29,0,.36-.01.61-.01.75,0,.56.01.98.04,1.28.03.3.08.51.15.65.07.14.17.23.28.26.11.03.29.05.52.05h.22v.42h-.25c-.28,0-.57-.03-.89-.08-.31-.05-.55-.08-.73-.08-.22,0-.49.03-.82.08-.32.05-.55.08-.66.08h-.44v-.42h.36c.25,0,.43-.03.55-.1.12-.06.2-.2.25-.41.05-.2.08-.51.1-.91.01-.4.02-1.07.02-2v-1.08c0-.44-.01-.76-.04-.95-.03-.19-.09-.31-.19-.36h-.26c-.21.05-.47.16-.77.33-.11.07-.24.14-.38.22h0Zm6.97,1.71c-.35-.19-.64-.38-.87-.58-.23-.19-.42-.4-.55-.65-.14-.24-.2-.52-.2-.82s.09-.56.29-.83c.19-.26.48-.47.86-.63.38-.16.84-.24,1.37-.24s.92.08,1.23.26c.32.17.54.38.67.63.12.25.19.49.19.74,0,.42-.13.78-.38,1.06-.26.28-.63.55-1.13.81.58.28,1.02.59,1.34.95.32.36.48.78.48,1.26,0,.4-.11.76-.33,1.1-.22.34-.54.6-.95.8-.41.2-.88.29-1.41.29-.47,0-.88-.08-1.26-.24-.37-.16-.66-.38-.86-.65-.2-.27-.31-.57-.31-.88,0-1.08.62-1.87,1.85-2.37h0Zm1.09-.48c.3-.2.53-.44.69-.73.16-.29.24-.56.24-.83,0-.2-.05-.4-.13-.6-.08-.19-.22-.35-.4-.48-.19-.12-.42-.19-.7-.19-.39,0-.68.11-.85.34-.18.23-.27.49-.27.79,0,.24.11.51.34.8.22.29.58.59,1.08.89h0Zm-.62.69c-.37.19-.69.47-.97.82-.28.35-.42.75-.42,1.2,0,.28.07.54.21.77.14.23.32.41.56.54.23.13.48.2.75.2.24,0,.47-.06.68-.18.2-.12.37-.28.5-.48.12-.2.18-.42.18-.67,0-.36-.11-.74-.33-1.12-.22-.39-.61-.74-1.15-1.06h0Zm4.19,4.07v-.42c.82-.36,1.48-.82,1.96-1.37.49-.55.82-1.11,1-1.65.18-.55.27-1.03.27-1.44,0-.61-.06-1.13-.19-1.56-.13-.43-.31-.76-.53-.98-.22-.22-.47-.33-.74-.33-.37,0-.67.16-.92.47-.25.31-.37.77-.37,1.36,0,.39.06.72.19,1.01.12.29.29.5.5.65.21.15.43.22.68.22s.46-.08.62-.24v.45c-.42.19-.86.27-1.32.27-.37,0-.7-.09-1.01-.26-.3-.18-.55-.43-.73-.76-.18-.33-.27-.72-.27-1.16s.11-.87.31-1.24c.21-.38.51-.68.92-.9.4-.22.89-.33,1.44-.33.46,0,.87.08,1.22.23.35.16.65.36.88.63.23.26.41.57.53.91.11.34.18.7.18,1.07s-.06.81-.18,1.26c-.12.45-.35.93-.67,1.44-.33.5-.8.99-1.42,1.45-.62.47-1.4.87-2.34,1.21h0Zm4.81-4.17c0-.6.08-1.14.24-1.63.16-.48.38-.89.66-1.22.28-.33.6-.58.96-.75.36-.17.74-.25,1.13-.25.59,0,1.12.19,1.56.55.44.37.79.85,1.02,1.45.23.6.35,1.23.35,1.89,0,.94-.15,1.71-.44,2.32-.29.61-.66,1.06-1.12,1.33-.45.28-.91.42-1.39.42-.41,0-.79-.1-1.15-.29-.36-.19-.68-.47-.96-.83-.28-.36-.49-.8-.64-1.31-.16-.51-.23-1.07-.23-1.68h0Zm1.43.82c.09.69.22,1.24.41,1.67.19.42.4.73.63.91.22.18.44.28.66.28.36,0,.69-.22.96-.65.28-.43.42-1.15.42-2.17,0-.74-.05-1.44-.16-2.1-.11-.66-.27-1.19-.51-1.59-.23-.4-.52-.6-.87-.6-.24,0-.48.08-.73.22-.24.15-.45.41-.62.79-.17.38-.26.9-.26,1.55,0,.75.02,1.32.06,1.7Z"/>
      </g>
      <g>
        <g>
          <path class="cls-4" d="m126.33,44.2v-11.9h2.18v11.9h-2.18Zm1.51-5.02v-1.9h4.01v1.9h-4.01Zm4.32-.68l-2.02-.27,4.06-5.93h2.35l-4.39,6.21Zm2.04,5.69l-4.03-5.8,1.79-1.1,4.74,6.9h-2.5Z"/>
          <path class="cls-4" d="m136.49,44.2l5.35-11.9h2.18l5.37,11.9h-2.31l-4.61-10.73h.88l-4.59,10.73h-2.28Zm2.46-2.75l.59-1.73h6.43l.6,1.73h-7.62Z"/>
          <path class="cls-4" d="m150.04,43.02l.71-1.62c.51.35,1.07.62,1.67.81.61.19,1.21.29,1.81.3.6.01,1.15-.06,1.64-.2.49-.15.89-.37,1.18-.66.29-.29.44-.66.44-1.1,0-.53-.22-.93-.65-1.2-.44-.27-1.03-.4-1.78-.4h-2.77v-1.73h2.6c.67,0,1.19-.14,1.55-.41s.55-.64.55-1.1c0-.39-.12-.7-.37-.95-.24-.25-.57-.44-.99-.56-.41-.12-.88-.18-1.39-.18-.52,0-1.05.08-1.61.24-.56.15-1.08.38-1.58.67l-.7-1.78c.75-.4,1.53-.67,2.35-.83.82-.16,1.62-.2,2.39-.14.77.07,1.46.24,2.08.53.62.28,1.11.65,1.49,1.11.37.46.56,1,.56,1.62,0,.57-.15,1.07-.45,1.5-.3.44-.71.77-1.23,1.01-.52.24-1.13.36-1.82.36l.08-.54c.78,0,1.46.13,2.05.4.58.27,1.04.63,1.36,1.1.32.46.48,1,.48,1.61,0,.58-.15,1.09-.44,1.54-.29.45-.7.82-1.21,1.12s-1.09.52-1.75.66-1.35.2-2.07.16c-.73-.03-1.45-.16-2.17-.37-.72-.21-1.4-.53-2.05-.95Z"/>
          <path class="cls-4" d="m160.73,44.2l5.35-11.9h2.18l5.37,11.9h-2.31l-4.61-10.73h.88l-4.59,10.73h-2.28Zm2.46-2.75l.59-1.73h6.43l.6,1.73h-7.62Z"/>
          <path class="cls-4" d="m177.67,44.2h-2.21v-11.9h2.21v11.9Zm6.32-5.1h-6.51v-1.89h6.51v1.89Zm-.17-6.8h2.21v11.9h-2.21v-11.9Z"/>
          <path class="cls-4" d="m194.83,44.37c-.91,0-1.75-.15-2.52-.45-.78-.3-1.45-.73-2.02-1.28-.57-.55-1.02-1.2-1.33-1.95s-.48-1.56-.48-2.45.16-1.7.48-2.45.77-1.4,1.34-1.95c.58-.55,1.25-.97,2.02-1.27.77-.3,1.62-.45,2.53-.45.97,0,1.86.17,2.67.5s1.48.83,2.04,1.49l-1.43,1.34c-.43-.46-.91-.81-1.45-1.05-.53-.23-1.11-.35-1.73-.35s-1.19.1-1.71.31c-.52.2-.96.49-1.34.87-.38.37-.67.82-.88,1.33-.21.51-.31,1.07-.31,1.68s.1,1.17.31,1.68c.21.51.5.95.88,1.33.38.37.83.66,1.34.87.52.2,1.08.31,1.71.31s1.2-.12,1.73-.35c.53-.23,1.01-.59,1.45-1.06l1.43,1.36c-.56.65-1.24,1.14-2.04,1.48-.8.34-1.7.51-2.69.51Z"/>
          <path class="cls-4" d="m201.62,44.2v-11.9h2.18v11.9h-2.18Zm1.51-5.02v-1.9h4.01v1.9h-4.01Zm4.32-.68l-2.02-.27,4.06-5.93h2.35l-4.39,6.21Zm2.04,5.69l-4.03-5.8,1.79-1.1,4.74,6.9h-2.5Z"/>
          <path class="cls-4" d="m213.52,44.2v-11.9h2.18v8.45l6.39-8.45h2.06v11.9h-2.18v-8.43l-6.39,8.43h-2.06Z"/>
          <path class="cls-4" d="m227.49,44.2v-11.9h2.18v8.45l6.39-8.45h2.06v11.9h-2.18v-8.43l-6.39,8.43h-2.06Zm5.29-12.7c-1.02,0-1.79-.21-2.3-.65-.52-.43-.78-1.04-.79-1.82h1.55c.01.42.15.74.42.97.27.23.64.34,1.13.34s.87-.11,1.15-.34c.28-.23.42-.55.43-.97h1.53c-.01.78-.28,1.39-.8,1.82-.52.43-1.29.65-2.31.65Z"/>
          <path class="cls-4" d="m248.35,44.2h-2.21v-11.9h2.21v11.9Zm6.32-5.1h-6.51v-1.89h6.51v1.89Zm-.17-6.8h2.21v11.9h-2.21v-11.9Z"/>
          <path class="cls-4" d="m258.53,44.2l5.35-11.9h2.18l5.37,11.9h-2.31l-4.61-10.73h.88l-4.59,10.73h-2.28Zm2.46-2.75l.59-1.73h6.43l.6,1.73h-7.62Z"/>
          <path class="cls-4" d="m273.27,44.2v-11.9h2.18v10.03h6v-10.03h2.19v11.9h-10.37Zm10.1,2.62v-3.16l.49.54h-2.41v-1.87h3.96v4.49h-2.04Z"/>
          <path class="cls-4" d="m287.45,44.2v-11.9h2.18v8.45l6.39-8.45h2.06v11.9h-2.18v-8.43l-6.39,8.43h-2.06Z"/>
          <path class="cls-4" d="m306.93,44.37c-.93,0-1.79-.15-2.57-.46s-1.46-.73-2.04-1.28-1.03-1.2-1.34-1.94c-.32-.74-.48-1.56-.48-2.44s.16-1.7.48-2.44c.32-.74.76-1.39,1.34-1.94.58-.55,1.26-.98,2.04-1.28.78-.31,1.63-.46,2.55-.46s1.78.15,2.56.46c.78.31,1.45.73,2.03,1.28.58.55,1.03,1.2,1.34,1.94.32.74.48,1.56.48,2.44s-.16,1.7-.48,2.45c-.32.75-.77,1.39-1.34,1.94s-1.25.97-2.03,1.27-1.62.46-2.54.46Zm-.02-1.94c.6,0,1.16-.1,1.67-.31.51-.2.95-.5,1.33-.88.37-.38.67-.82.88-1.33.21-.5.32-1.06.32-1.67s-.11-1.17-.32-1.67c-.21-.5-.5-.95-.88-1.33-.37-.38-.82-.67-1.33-.88-.51-.2-1.07-.31-1.67-.31s-1.15.1-1.66.31c-.5.2-.95.5-1.33.88-.38.38-.67.82-.88,1.33-.21.5-.31,1.06-.31,1.67s.1,1.16.31,1.67c.21.51.5.96.88,1.33.37.38.82.67,1.33.88.51.2,1.07.31,1.67.31Z"/>
          <path class="cls-4" d="m317.98,44.2h-2.21v-11.9h2.21v11.9Zm6.32-5.1h-6.51v-1.89h6.51v1.89Zm-.17-6.8h2.21v11.9h-2.21v-11.9Z"/>
          <path class="cls-4" d="m328.16,44.2l5.35-11.9h2.18l5.37,11.9h-2.31l-4.61-10.73h.88l-4.59,10.73h-2.28Zm2.46-2.75l.59-1.73h6.43l.6,1.73h-7.62Z"/>
          <path class="cls-4" d="m342.68,44.37c-.19,0-.39-.02-.58-.05-.19-.03-.4-.07-.63-.12l.15-1.92c.16.05.33.07.51.07.48,0,.86-.2,1.14-.59s.49-.97.61-1.73c.12-.76.21-1.69.25-2.81l.17-4.93h8.75v11.9h-2.18v-10.57l.51.54h-5.66l.48-.56-.12,3.54c-.03,1.18-.11,2.22-.24,3.11s-.31,1.65-.57,2.25-.59,1.07-1.01,1.39c-.42.32-.95.48-1.6.48Z"/>
          <path class="cls-4" d="m361.91,36.33c1.42,0,2.51.32,3.28.95.77.63,1.16,1.59,1.16,2.86,0,1.34-.42,2.35-1.27,3.03-.84.69-2.02,1.03-3.53,1.03h-5.12v-11.9h2.18v4.03h3.3Zm-.46,6.17c.85,0,1.51-.2,1.98-.59.47-.4.71-.97.71-1.73s-.23-1.29-.7-1.64-1.13-.52-1.99-.52h-2.84v4.49h2.84Z"/>
          <path class="cls-4" d="m370.82,44.2h-2.21v-11.9h2.21v11.9Zm6.32-5.1h-6.51v-1.89h6.51v1.89Zm-.17-6.8h2.21v11.9h-2.21v-11.9Z"/>
          <path class="cls-4" d="m388,36.33c1.42,0,2.51.32,3.28.95.77.63,1.16,1.59,1.16,2.86,0,1.34-.42,2.35-1.27,3.03-.84.69-2.02,1.03-3.53,1.03h-5.12v-11.9h2.18v4.03h3.3Zm-.46,6.17c.85,0,1.51-.2,1.98-.59.47-.4.71-.97.71-1.73s-.23-1.29-.7-1.64-1.13-.52-1.99-.52h-2.84v4.49h2.84Zm6.61,1.7v-11.9h2.18v11.9h-2.18Z"/>
          <path class="cls-4" d="m399.7,44.2v-11.9h2.18v8.45l6.39-8.45h2.06v11.9h-2.18v-8.43l-6.39,8.43h-2.06Zm5.29-12.7c-1.02,0-1.79-.21-2.3-.65-.52-.43-.78-1.04-.79-1.82h1.55c.01.42.15.74.42.97.27.23.64.34,1.13.34s.87-.11,1.15-.34c.28-.23.42-.55.43-.97h1.53c-.01.78-.28,1.39-.8,1.82-.52.43-1.29.65-2.31.65Z"/>
          <path class="cls-4" d="m418.36,44.2v-11.9h2.18v8.45l6.39-8.45h2.06v11.9h-2.18v-8.43l-6.39,8.43h-2.06Z"/>
          <path class="cls-4" d="m437.8,44.37c-.91,0-1.75-.15-2.52-.45-.78-.3-1.45-.73-2.02-1.28-.57-.55-1.02-1.2-1.33-1.95s-.48-1.56-.48-2.45.16-1.7.48-2.45.77-1.4,1.34-1.95c.58-.55,1.25-.97,2.02-1.27.77-.3,1.62-.45,2.53-.45.97,0,1.86.17,2.67.5s1.48.83,2.04,1.49l-1.43,1.34c-.43-.46-.91-.81-1.45-1.05-.53-.23-1.11-.35-1.73-.35s-1.19.1-1.71.31c-.52.2-.96.49-1.34.87-.38.37-.67.82-.88,1.33-.21.51-.31,1.07-.31,1.68s.1,1.17.31,1.68c.21.51.5.95.88,1.33.38.37.83.66,1.34.87.52.2,1.08.31,1.71.31s1.2-.12,1.73-.35c.53-.23,1.01-.59,1.45-1.06l1.43,1.36c-.56.65-1.24,1.14-2.04,1.48-.8.34-1.7.51-2.69.51Z"/>
          <path class="cls-4" d="m449.8,44.37c-.91,0-1.75-.15-2.52-.45-.78-.3-1.45-.73-2.02-1.28-.57-.55-1.02-1.2-1.33-1.95s-.48-1.56-.48-2.45.16-1.7.48-2.45.77-1.4,1.34-1.95c.58-.55,1.25-.97,2.02-1.27.77-.3,1.62-.45,2.53-.45.97,0,1.86.17,2.67.5s1.48.83,2.04,1.49l-1.43,1.34c-.43-.46-.91-.81-1.45-1.05-.53-.23-1.11-.35-1.73-.35s-1.19.1-1.71.31c-.52.2-.96.49-1.34.87-.38.37-.67.82-.88,1.33-.21.51-.31,1.07-.31,1.68s.1,1.17.31,1.68c.21.51.5.95.88,1.33.38.37.83.66,1.34.87.52.2,1.08.31,1.71.31s1.2-.12,1.73-.35c.53-.23,1.01-.59,1.45-1.06l1.43,1.36c-.56.65-1.24,1.14-2.04,1.48-.8.34-1.7.51-2.69.51Z"/>
          <path class="cls-4" d="m456.05,44.37c-.19,0-.39-.02-.58-.05-.19-.03-.4-.07-.63-.12l.15-1.92c.16.05.33.07.51.07.48,0,.86-.2,1.14-.59s.49-.97.61-1.73c.12-.76.21-1.69.25-2.81l.17-4.93h8.75v11.9h-2.18v-10.57l.51.54h-5.66l.48-.56-.12,3.54c-.03,1.18-.11,2.22-.24,3.11s-.31,1.65-.57,2.25-.59,1.07-1.01,1.39c-.42.32-.95.48-1.6.48Z"/>
          <path class="cls-4" d="m472,42.34h6.71v1.85h-8.92v-11.9h8.69v1.85h-6.48v8.19Zm-.17-5.1h5.92v1.82h-5.92v-1.82Z"/>
          <path class="cls-4" d="m479.75,46.73l.02-4.4h13.21v4.4h-2.04v-2.53h-9.13v2.53h-2.06Zm9.33-3.55v-9.01h-4.66l-.08,2.11c-.03.79-.08,1.54-.14,2.25-.06.71-.16,1.35-.29,1.93-.13.58-.31,1.06-.54,1.45-.23.39-.5.64-.83.77l-2.38-.34c.43.02.78-.12,1.06-.44.28-.32.5-.76.65-1.33.16-.57.28-1.23.36-2,.08-.76.14-1.59.17-2.49l.14-3.77h8.72v10.88h-2.18Z"/>
          <path class="cls-4" d="m500.58,44.37c-.93,0-1.79-.15-2.57-.46s-1.46-.73-2.04-1.28-1.03-1.2-1.34-1.94c-.32-.74-.48-1.56-.48-2.44s.16-1.7.48-2.44c.32-.74.76-1.39,1.34-1.94.58-.55,1.26-.98,2.04-1.28.78-.31,1.63-.46,2.55-.46s1.78.15,2.56.46c.78.31,1.45.73,2.03,1.28.58.55,1.03,1.2,1.34,1.94.32.74.48,1.56.48,2.44s-.16,1.7-.48,2.45c-.32.75-.77,1.39-1.34,1.94s-1.25.97-2.03,1.27-1.62.46-2.54.46Zm-.02-1.94c.6,0,1.16-.1,1.67-.31.51-.2.95-.5,1.33-.88.37-.38.67-.82.88-1.33.21-.5.32-1.06.32-1.67s-.11-1.17-.32-1.67c-.21-.5-.5-.95-.88-1.33-.37-.38-.82-.67-1.33-.88-.51-.2-1.07-.31-1.67-.31s-1.15.1-1.66.31c-.5.2-.95.5-1.33.88-.38.38-.67.82-.88,1.33-.21.5-.31,1.06-.31,1.67s.1,1.16.31,1.67c.21.51.5.96.88,1.33.37.38.82.67,1.33.88.51.2,1.07.31,1.67.31Z"/>
          <path class="cls-4" d="m509.43,44.2v-11.9h5.32c1.34,0,2.38.26,3.13.79.75.53,1.12,1.28,1.12,2.27s-.36,1.73-1.07,2.25c-.71.53-1.65.79-2.82.79l.31-.61c1.33,0,2.35.27,3.08.8.72.53,1.09,1.3,1.09,2.31s-.38,1.84-1.14,2.42c-.76.58-1.88.88-3.37.88h-5.64Zm2.18-6.82h2.96c.71,0,1.26-.14,1.63-.43s.56-.71.56-1.25-.19-.99-.56-1.27-.92-.43-1.63-.43h-2.96v3.38Zm0,5.12h3.4c.77,0,1.35-.14,1.75-.43.4-.29.6-.73.6-1.33s-.2-1.04-.6-1.32c-.4-.28-.98-.42-1.75-.42h-3.4v3.5Z"/>
          <path class="cls-4" d="m520.59,44.2l5.35-11.9h2.18l5.37,11.9h-2.31l-4.61-10.73h.88l-4.59,10.73h-2.28Zm2.46-2.75l.59-1.73h6.43l.6,1.73h-7.62Z"/>
          <path class="cls-4" d="m537.21,44.2v-10.57l.53.54h-4.45v-1.87h10.06v1.87h-4.45l.51-.54v10.57h-2.19Z"/>
          <path class="cls-4" d="m547.46,42.34h6.71v1.85h-8.92v-11.9h8.69v1.85h-6.48v8.19Zm-.17-5.1h5.92v1.82h-5.92v-1.82Z"/>
          <path class="cls-4" d="m556.42,44.37c-.19,0-.39-.02-.58-.05-.19-.03-.4-.07-.63-.12l.15-1.92c.16.05.33.07.51.07.48,0,.86-.2,1.14-.59s.49-.97.61-1.73c.12-.76.21-1.69.25-2.81l.17-4.93h8.75v11.9h-2.18v-10.57l.51.54h-5.66l.48-.56-.12,3.54c-.03,1.18-.11,2.22-.24,3.11s-.31,1.65-.57,2.25-.59,1.07-1.01,1.39c-.42.32-.95.48-1.6.48Z"/>
          <path class="cls-4" d="m575.65,36.33c1.42,0,2.51.32,3.28.95.77.63,1.16,1.59,1.16,2.86,0,1.34-.42,2.35-1.27,3.03-.84.69-2.02,1.03-3.53,1.03h-5.12v-11.9h2.18v4.03h3.3Zm-.46,6.17c.85,0,1.51-.2,1.98-.59.47-.4.71-.97.71-1.73s-.23-1.29-.7-1.64-1.13-.52-1.99-.52h-2.84v4.49h2.84Z"/>
          <path class="cls-4" d="m587.82,44.37c-.91,0-1.75-.15-2.52-.45-.78-.3-1.45-.73-2.02-1.28-.57-.55-1.02-1.2-1.33-1.95s-.48-1.56-.48-2.45.16-1.7.48-2.45.77-1.4,1.34-1.95c.58-.55,1.25-.97,2.02-1.27.77-.3,1.62-.45,2.53-.45.97,0,1.86.17,2.67.5s1.48.83,2.04,1.49l-1.43,1.34c-.43-.46-.91-.81-1.45-1.05-.53-.23-1.11-.35-1.73-.35s-1.19.1-1.71.31c-.52.2-.96.49-1.34.87-.38.37-.67.82-.88,1.33-.21.51-.31,1.07-.31,1.68s.1,1.17.31,1.68c.21.51.5.95.88,1.33.38.37.83.66,1.34.87.52.2,1.08.31,1.71.31s1.2-.12,1.73-.35c.53-.23,1.01-.59,1.45-1.06l1.43,1.36c-.56.65-1.24,1.14-2.04,1.48-.8.34-1.7.51-2.69.51Z"/>
          <path class="cls-4" d="m594.6,44.2v-11.9h2.18v11.9h-2.18Zm1.51-5.02v-1.9h4.01v1.9h-4.01Zm4.32-.68l-2.02-.27,4.06-5.93h2.35l-4.39,6.21Zm2.04,5.69l-4.03-5.8,1.79-1.1,4.74,6.9h-2.5Z"/>
          <path class="cls-4" d="m606.5,44.2v-11.9h2.18v8.45l6.39-8.45h2.06v11.9h-2.18v-8.43l-6.39,8.43h-2.06Z"/>
          <path class="cls-4" d="m620.48,44.2v-11.9h2.18v8.45l6.39-8.45h2.06v11.9h-2.18v-8.43l-6.39,8.43h-2.06Zm5.29-12.7c-1.02,0-1.79-.21-2.3-.65-.52-.43-.78-1.04-.79-1.82h1.55c.01.42.15.74.42.97.27.23.64.34,1.13.34s.87-.11,1.15-.34c.28-.23.42-.55.43-.97h1.53c-.01.78-.28,1.39-.8,1.82-.52.43-1.29.65-2.31.65Z"/>
        </g>
        <g>
          <path class="cls-4" d="m131.11,70.57v-16.38l.82.84h-6.9v-2.9h15.59v2.9h-6.9l.79-.84v16.38h-3.4Z"/>
          <path class="cls-4" d="m146.99,67.7h10.4v2.87h-13.83v-18.44h13.46v2.87h-10.03v12.69Zm-.26-7.9h9.17v2.82h-9.17v-2.82Z"/>
          <path class="cls-4" d="m159.19,52.13h3.95l4.35,6.16,4.35-6.16h4l-6.19,8.85,6.69,9.59h-4.06l-4.79-6.72-4.77,6.72h-3.95l6.66-9.45-6.24-8.98Z"/>
          <path class="cls-4" d="m182.05,70.57h-3.42v-18.44h3.42v18.44Zm9.8-7.9h-10.09v-2.92h10.09v2.92Zm-.26-10.53h3.42v18.44h-3.42v-18.44Z"/>
          <path class="cls-4" d="m208.72,70.83c-1.44,0-2.77-.24-3.98-.71-1.21-.47-2.26-1.14-3.16-1.99s-1.59-1.85-2.08-3c-.49-1.15-.74-2.41-.74-3.78s.25-2.63.74-3.78c.49-1.15,1.18-2.15,2.08-3,.9-.85,1.95-1.51,3.16-1.99,1.21-.47,2.53-.71,3.95-.71s2.76.24,3.96.71c1.2.47,2.25,1.14,3.15,1.99.9.85,1.59,1.85,2.08,3,.49,1.15.74,2.41.74,3.78s-.25,2.63-.74,3.79c-.49,1.16-1.19,2.16-2.08,3s-1.94,1.5-3.15,1.98c-1.2.47-2.51.71-3.94.71Zm-.03-3c.93,0,1.79-.16,2.58-.47.79-.32,1.47-.77,2.05-1.36.58-.59,1.03-1.27,1.36-2.05.32-.78.49-1.65.49-2.59s-.16-1.81-.49-2.59c-.33-.78-.78-1.47-1.36-2.05-.58-.59-1.26-1.04-2.05-1.36-.79-.32-1.65-.47-2.58-.47s-1.79.16-2.57.47c-.78.32-1.47.77-2.05,1.36-.59.59-1.04,1.27-1.37,2.05-.33.78-.49,1.65-.49,2.59s.16,1.79.49,2.58.78,1.48,1.36,2.07c.58.59,1.26,1.04,2.05,1.36.79.32,1.65.47,2.58.47Z"/>
          <path class="cls-4" d="m221.55,70.83c-.3,0-.6-.03-.9-.08-.3-.05-.62-.11-.97-.18l.24-2.98c.25.07.51.11.79.11.74,0,1.33-.3,1.76-.91.44-.61.75-1.5.95-2.67s.33-2.62.4-4.35l.26-7.64h13.56v18.44h-3.37v-16.38l.79.84h-8.77l.74-.87-.18,5.48c-.05,1.83-.18,3.43-.37,4.82-.19,1.39-.49,2.55-.88,3.49-.4.94-.92,1.66-1.57,2.15s-1.47.74-2.48.74Z"/>
          <path class="cls-4" d="m251.39,70.83c-1.44,0-2.77-.24-3.98-.71-1.21-.47-2.26-1.14-3.16-1.99s-1.59-1.85-2.08-3c-.49-1.15-.74-2.41-.74-3.78s.25-2.63.74-3.78c.49-1.15,1.18-2.15,2.08-3,.9-.85,1.95-1.51,3.16-1.99,1.21-.47,2.53-.71,3.95-.71s2.76.24,3.96.71c1.2.47,2.25,1.14,3.15,1.99.9.85,1.59,1.85,2.08,3,.49,1.15.74,2.41.74,3.78s-.25,2.63-.74,3.79c-.49,1.16-1.19,2.16-2.08,3s-1.94,1.5-3.15,1.98c-1.2.47-2.51.71-3.94.71Zm-.03-3c.93,0,1.79-.16,2.58-.47.79-.32,1.47-.77,2.05-1.36.58-.59,1.03-1.27,1.36-2.05.32-.78.49-1.65.49-2.59s-.16-1.81-.49-2.59c-.33-.78-.78-1.47-1.36-2.05-.58-.59-1.26-1.04-2.05-1.36-.79-.32-1.65-.47-2.58-.47s-1.79.16-2.57.47c-.78.32-1.47.77-2.05,1.36-.59.59-1.04,1.27-1.37,2.05-.33.78-.49,1.65-.49,2.59s.16,1.79.49,2.58.78,1.48,1.36,2.07c.58.59,1.26,1.04,2.05,1.36.79.32,1.65.47,2.58.47Z"/>
          <path class="cls-4" d="m265.11,70.57v-18.44h12.51l-.03,2.9h-9.93l.79-.82.03,16.35h-3.37Z"/>
          <path class="cls-4" d="m280.52,70.57v-18.44h3.37v13.09l9.9-13.09h3.19v18.44h-3.37v-13.06l-9.9,13.06h-3.19Z"/>
          <path class="cls-4" d="m313.12,63.41c-.97.4-1.91.7-2.82.9-.91.19-1.8.29-2.66.29-2.35,0-4.17-.57-5.44-1.7-1.27-1.13-1.91-2.76-1.91-4.89v-5.87h3.4v5.5c0,1.3.38,2.29,1.13,2.98s1.83,1.03,3.24,1.03c.84,0,1.69-.1,2.54-.29.85-.19,1.67-.49,2.46-.9l.05,2.95Zm-.53,7.16v-18.44h3.4v18.44h-3.4Z"/>
          <path class="cls-4" d="m324.58,67.7h10.4v2.87h-13.83v-18.44h13.46v2.87h-10.03v12.69Zm-.26-7.9h9.17v2.82h-9.17v-2.82Z"/>
          <path class="cls-4" d="m347.28,70.83c-1.41,0-2.71-.23-3.91-.7-1.2-.46-2.25-1.12-3.13-1.98-.89-.85-1.58-1.86-2.07-3.02-.49-1.16-.74-2.42-.74-3.79s.25-2.63.74-3.79c.49-1.16,1.18-2.16,2.08-3.02s1.94-1.51,3.13-1.98c1.19-.46,2.5-.7,3.92-.7,1.51,0,2.89.26,4.13.78,1.25.52,2.3,1.29,3.16,2.3l-2.21,2.08c-.67-.72-1.41-1.26-2.24-1.62-.83-.36-1.72-.54-2.69-.54s-1.85.16-2.65.47c-.8.32-1.49.76-2.08,1.34-.59.58-1.04,1.26-1.37,2.05-.33.79-.49,1.66-.49,2.61s.16,1.82.49,2.61.78,1.47,1.37,2.05c.59.58,1.28,1.03,2.08,1.34.8.32,1.68.47,2.65.47s1.86-.18,2.69-.54,1.57-.91,2.24-1.65l2.21,2.11c-.86,1-1.91,1.76-3.16,2.29-1.25.53-2.63.79-4.16.79Z"/>
          <path class="cls-4" d="m357.79,70.57v-18.44h3.37v18.44h-3.37Zm2.34-7.77v-2.95h6.22v2.95h-6.22Zm6.69-1.05l-3.13-.42,6.29-9.19h3.63l-6.79,9.61Zm3.16,8.82l-6.24-8.98,2.76-1.71,7.35,10.69h-3.87Z"/>
          <path class="cls-4" d="m376.22,70.57v-18.44h3.37v13.09l9.9-13.09h3.19v18.44h-3.37v-13.06l-9.9,13.06h-3.19Z"/>
          <path class="cls-4" d="m397.87,70.57v-18.44h3.37v13.09l9.9-13.09h3.19v18.44h-3.37v-13.06l-9.9,13.06h-3.19Zm8.19-19.67c-1.58,0-2.77-.33-3.57-1-.8-.67-1.21-1.61-1.22-2.82h2.4c.02.65.23,1.15.65,1.5.41.35,1,.53,1.75.53s1.35-.18,1.78-.53c.43-.35.65-.85.67-1.5h2.37c-.02,1.21-.43,2.15-1.24,2.82-.81.67-2,1-3.58,1Z"/>
          <path class="cls-4" d="m432.71,67.51l-8.22-15.38h3.66l6.43,12.75-1.87,2.63Zm-5.69.16c.96.33,1.82.42,2.55.26.74-.16,1.4-.69,1.97-1.61l.9-1.4.34-.37,6.43-12.43h3.37l-8.01,14.88c-.65,1.25-1.42,2.19-2.32,2.84s-1.86,1.01-2.88,1.09-2.09-.12-3.2-.59l.84-2.69Z"/>
          <path class="cls-4" d="m448.38,70.57h-3.42v-18.44h3.42v18.44Zm9.8-7.9h-10.09v-2.92h10.09v2.92Zm-.26-10.53h3.42v18.44h-3.42v-18.44Z"/>
          <path class="cls-4" d="m466.53,70.57v-18.44h3.37v13.09l9.9-13.09h3.19v18.44h-3.37v-13.06l-9.9,13.06h-3.19Z"/>
          <path class="cls-4" d="m488.18,70.57v-18.44h8.24c2.07,0,3.69.41,4.85,1.22,1.16.82,1.74,1.99,1.74,3.52s-.55,2.67-1.66,3.49-2.56,1.22-4.37,1.22l.47-.95c2.05,0,3.64.41,4.77,1.24,1.12.83,1.69,2.02,1.69,3.58s-.59,2.85-1.76,3.75c-1.18.9-2.92,1.36-5.21,1.36h-8.74Zm3.37-10.56h4.58c1.11,0,1.95-.22,2.53-.67.58-.45.87-1.09.87-1.94s-.29-1.54-.87-1.98c-.58-.44-1.42-.66-2.53-.66h-4.58v5.24Zm0,7.93h5.27c1.19,0,2.1-.22,2.71-.67s.92-1.14.92-2.07-.31-1.61-.92-2.04-1.52-.65-2.71-.65h-5.27v5.43Z"/>
          <path class="cls-4" d="m511.22,67.7h10.4v2.87h-13.83v-18.44h13.46v2.87h-10.03v12.69Zm-.26-7.9h9.17v2.82h-9.17v-2.82Z"/>
          <path class="cls-4" d="m525.44,70.57v-18.44h7.58c1.63,0,3.03.26,4.2.79,1.17.53,2.07,1.28,2.7,2.27.63.98.95,2.15.95,3.5s-.32,2.52-.95,3.5c-.63.98-1.53,1.74-2.7,2.27-1.17.53-2.57.79-4.2.79h-5.69l1.53-1.61v6.93h-3.42Zm3.42-6.56l-1.53-1.66h5.53c1.51,0,2.65-.32,3.41-.96.76-.64,1.15-1.54,1.15-2.7s-.38-2.08-1.15-2.71c-.76-.63-1.9-.95-3.41-.95h-5.53l1.53-1.69v10.67Z"/>
          <path class="cls-4" d="m552.86,70.83c-1.41,0-2.71-.23-3.91-.7-1.2-.46-2.25-1.12-3.13-1.98-.89-.85-1.58-1.86-2.07-3.02-.49-1.16-.74-2.42-.74-3.79s.25-2.63.74-3.79c.49-1.16,1.18-2.16,2.08-3.02s1.94-1.51,3.13-1.98c1.19-.46,2.5-.7,3.92-.7,1.51,0,2.89.26,4.13.78,1.25.52,2.3,1.29,3.16,2.3l-2.21,2.08c-.67-.72-1.41-1.26-2.24-1.62-.83-.36-1.72-.54-2.69-.54s-1.85.16-2.65.47c-.8.32-1.49.76-2.08,1.34-.59.58-1.04,1.26-1.37,2.05-.33.79-.49,1.66-.49,2.61s.16,1.82.49,2.61.78,1.47,1.37,2.05c.59.58,1.28,1.03,2.08,1.34.8.32,1.68.47,2.65.47s1.86-.18,2.69-.54,1.57-.91,2.24-1.65l2.21,2.11c-.86,1-1.91,1.76-3.16,2.29-1.25.53-2.63.79-4.16.79Z"/>
          <path class="cls-4" d="m563.39,70.57v-18.44h3.37v13.09l9.9-13.09h3.19v18.44h-3.37v-13.06l-9.9,13.06h-3.19Z"/>
          <path class="cls-4" d="m588.88,70.57v-16.38l.82.84h-6.9v-2.9h15.59v2.9h-6.9l.79-.84v16.38h-3.4Z"/>
          <path class="cls-4" d="m604.77,67.7h10.4v2.87h-13.83v-18.44h13.46v2.87h-10.03v12.69Zm-.26-7.9h9.17v2.82h-9.17v-2.82Z"/>
          <path class="cls-4" d="m622.86,70.57v-16.38l.82.84h-6.9v-2.9h15.59v2.9h-6.9l.79-.84v16.38h-3.4Z"/>
        </g>
      </g>
      <rect class="cls-4" x="107.9" y="20" width="2" height="60"/>
    </g>
  </g>
</svg>